<svg width="25" height="24" viewBox="0 0 25 24" fill="none" xmlns="http://www.w3.org/2000/svg">
<path fill-rule="evenodd" clip-rule="evenodd" d="M24.8334 12.2728C24.8334 11.4219 24.7555 10.6037 24.6107 9.81826H13.0783V14.4601H19.6683C19.3844 15.9601 18.5217 17.231 17.2248 18.0819V21.0928H21.1822C23.4976 19.0037 24.8334 15.9274 24.8334 12.2728Z" fill="#4285F4"/>
<path fill-rule="evenodd" clip-rule="evenodd" d="M13.0783 24C16.3844 24 19.1562 22.9255 21.1822 21.0928L17.2248 18.0819C16.1284 18.8019 14.7258 19.2273 13.0783 19.2273C9.88904 19.2273 7.1896 17.1164 6.2267 14.28H2.13579V17.3891C4.15064 21.3109 8.29164 24 13.0783 24Z" fill="#34A853"/>
<path fill-rule="evenodd" clip-rule="evenodd" d="M6.2267 14.28C5.98181 13.56 5.84265 12.791 5.84265 12.0001C5.84265 11.2092 5.9818 10.4401 6.2267 9.72007V6.61097H2.13579C1.30647 8.23098 0.833374 10.0637 0.833374 12.0001C0.833374 13.9364 1.30648 15.7691 2.13579 17.3891L6.2267 14.28Z" fill="#FBBC05"/>
<path fill-rule="evenodd" clip-rule="evenodd" d="M13.0783 4.77273C14.8761 4.77273 16.4902 5.37818 17.7592 6.56728L21.2712 3.12546C19.1506 1.18909 16.3788 0 13.0783 0C8.29164 0 4.15063 2.68915 2.13579 6.61097L6.2267 9.72007C7.18959 6.8837 9.88904 4.77273 13.0783 4.77273Z" fill="#EA4335"/>
</svg>
